<svg xmlns="http://www.w3.org/2000/svg" viewBox="0 0 256 256">
  <circle cx="128" cy="128" r="128" fill="#F4C430"/>
  <path d="M128 40 Q140 50 145 70 L165 140 Q168 155 160 160 L145 160 L140 135 L116 135 L111 160 L96 160 Q88 155 91 140 L111 70 Q116 50 128 40 Z M120 110 L136 110 L128 75 Z" fill="#8B4513"/>
  <path d="M180 200 Q185 195 190 200 Q195 205 200 200 L205 205 Q200 210 195 205 Q190 210 185 205 Z" fill="#8B4513" opacity="0.3"/>
  <path d="M60 80 Q65 75 70 80 Q75 85 80 80 L85 85 Q80 90 75 85 Q70 90 65 85 Z" fill="#8B4513" opacity="0.3"/>
</svg>